<?xml version="1.0" encoding="utf-8"?>
<!-- Generator: Adobe Illustrator 22.1.0, SVG Export Plug-In . SVG Version: 6.00 Build 0)  -->
<svg version="1.1" id="레이어_2" xmlns="http://www.w3.org/2000/svg" xmlns:xlink="http://www.w3.org/1999/xlink" x="0px"
	 y="0px" viewBox="0 0 512 512" style="enable-background:new 0 0 512 512;" xml:space="preserve">
<style type="text/css">
	.st0{fill:#2EAEF8;}
	.st1{fill:#BF423C;}
	.st2{fill:#EE6D58;}
	.st3{fill:#F4B887;}
	.st4{fill:#FDD5B1;}
	.st5{fill-rule:evenodd;clip-rule:evenodd;fill:#E29F6D;}
	.st6{fill:#3E2F3C;}
	.st7{fill:#5B4559;}
	.st8{fill:#C98F65;}
	.st9{fill:#1D8A9C;}
	.st10{fill:#2CABAE;}
	.st11{fill:#F2EED1;}
	.st12{fill:#E1DEB4;}
	.st13{fill:#844E29;}
	.st14{fill:#9C6237;}
	.st15{fill-rule:evenodd;clip-rule:evenodd;fill:#6B3F20;}
	.st16{fill:#FFFFFF;}
	.st17{fill:#E0DDB3;}
	.st18{fill:#F1EDD0;}
	.st19{fill:#7EA9DA;}
	.st20{fill:#ADDCF6;}
	.st21{fill:#F2B786;}
	.st22{fill:#FDD4B0;}
	.st23{fill-rule:evenodd;clip-rule:evenodd;fill:#E29E6D;}
	.st24{fill:#EDA64E;}
	.st25{fill:#F3C067;}
	.st26{fill:#5B4659;}
	.st27{fill:#F05C54;}
	.st28{fill:#EE4839;}
	.st29{fill:#CE2E31;}
	.st30{fill:#EEA74E;}
	.st31{fill:#F5C268;}
	.st32{fill:none;}
</style>
<path class="st0" d="M452.3,512H59.7C26.8,512,0,485.2,0,452.3V59.7C0,26.8,26.8,0,59.7,0h392.7C485.2,0,512,26.8,512,59.7v392.7
	C512,485.2,485.2,512,452.3,512z"/>
<g>
	<path class="st1" d="M105.7,399.6l-9.6,4.5l4.7,10.1c0,0,1.1,3.9-2.7,7.4c-3.7,3.4-14.1,13-14.1,13s-9.3,6.6-5.9,13.9l9.2,19.8
		c3.1,0,6.2-0.2,9.2-0.5l5.9-2.8l-2.6-5.6c0.2,0.1,0.5,0.1,0.7,0.2c2.2,0.5,4.7,2.9,7.4,6.5c8.4-1.7,16.8-4.4,24.9-8.2l0,0
		L105.7,399.6z"/>
	<path class="st2" d="M146.4,405.6L146.4,405.6c0,0-14,1.8-19.1,2.4c-5.1,0.6-7.4-2.7-7.4-2.7l-4.7-10.1l-9.6,4.5l27.1,58.3
		c8.1-3.8,15.6-8.4,22.3-13.8c-1-4.3-1.3-7.8-0.2-9.8c0.1-0.2,0.2-0.4,0.3-0.6l2.6,5.6l5.9-2.8c2.2-2.2,4.3-4.4,6.3-6.7l-9.2-19.8
		C157.5,402.6,146.4,405.6,146.4,405.6z"/>
	<path class="st3" d="M84.1,434.6c0,0-9.3,6.6-5.9,13.9l9.2,19.8c5.3-0.1,10.7-0.5,16-1.4l-11.5-24.8
		C88.9,435.8,84.1,434.6,84.1,434.6z"/>
	<path class="st4" d="M146.4,405.6c0,0-2.2,4.5,0.8,10.8l11.5,24.8c4.1-3.5,7.9-7.4,11.4-11.4l-9.2-19.8
		C157.4,402.6,146.4,405.6,146.4,405.6z"/>
	<path class="st3" d="M100.9,414.2c0,0,1.1,3.9-2.7,7.4c-1.1,1-2.7,2.5-4.5,4.1c6.5,4.6,16.1,5.4,24.8,1.4l0,0l-12.8-27.4l-9.6,4.5
		L100.9,414.2z"/>
	<path class="st4" d="M120,405.3l-4.7-10.1l-9.6,4.5l12.8,27.4c8.7-4.1,14.3-11.9,14.9-19.9c-2.4,0.3-4.6,0.6-6.1,0.8
		C122.3,408.6,120,405.3,120,405.3z"/>
	<path class="st5" d="M115.3,395.2l-19.1,8.9l3.3,7.1c4.8,0.3,9.4-0.5,9.4-0.5s6-1.3,11.9-4.6c0,0-0.7-0.7-0.8-0.8
		C118.8,402.8,115.3,395.2,115.3,395.2z"/>
	<path class="st6" d="M122.9,312c12.4,26.6,0.9,58.2-25.7,70.6c-26.6,12.4-58.2,0.9-70.6-25.7c-12.4-26.6-0.9-58.2,25.7-70.6
		C78.9,273.9,110.5,285.4,122.9,312z"/>
	<path class="st7" d="M122.9,312c-12.4-26.6-44-38.1-70.6-25.7l44.9,96.3C123.7,370.3,135.2,338.6,122.9,312z"/>
	<path class="st6" d="M82,408.9c2.4,5.2,0.2,11.3-5,13.7l0,0c-5.2,2.4-11.3,0.2-13.7-5l-23.4-50.1c-2.4-5.2-0.2-11.3,5-13.7l0,0
		c5.2-2.4,11.3-0.2,13.7,5L82,408.9z"/>
	<path class="st1" d="M59.4,372c1.1,2.3,0.1,5-2.2,6.1l-8.1,3.8c-2.3,1.1-5,0.1-6.1-2.2l0,0c-1.1-2.3-0.1-5,2.2-6.1l8.1-3.8
		C55.6,368.7,58.3,369.7,59.4,372L59.4,372z"/>
	<path class="st7" d="M127,388c2.4,5.2,8.6,7.4,13.7,5l0,0c5.2-2.4,7.4-8.6,5-13.7l-23.4-50.1c-2.4-5.2-8.6-7.4-13.7-5l0,0
		c-5.2,2.4-7.4,8.6-5,13.7L127,388z"/>
	<path class="st2" d="M113.2,346.9c1.1,2.3,3.8,3.3,6.1,2.2l8.1-3.8c2.3-1.1,3.3-3.8,2.2-6.1l0,0c-1.1-2.3-3.8-3.3-6.1-2.2l-8.1,3.8
		C113.2,341.9,112.2,344.6,113.2,346.9L113.2,346.9z"/>
	<path class="st4" d="M67.6,319.3l39.1,83.9c0,0,32.8-14,27.5-25.5c-5.3-11.5-38.6-69.1-38.6-69.1L67.6,319.3z"/>
	<path class="st3" d="M67.6,319.3l39.1,83.9c0,0-31.9,16.1-37.2,4.6c-5.3-11.5-28-74-28-74L67.6,319.3z"/>
	<path class="st6" d="M39,334.1l1.7,4.8c0,0,37-2.8,52.5-5.3c15.5-2.4,17.5-3.4,17.5-3.4L97.3,307C97.3,307,61.4,307.2,39,334.1z"/>
	<g>
		<path class="st7" d="M96.8,350.7c0.9,1.8,3.1,2.7,4.9,1.8c1.9-0.9,2.7-3.1,1.8-4.9c-0.9-1.8-3.1-2.7-4.9-1.8
			C96.7,346.7,95.9,348.9,96.8,350.7z"/>
		<path class="st7" d="M73.2,361.7c0.9,1.8,0.1,4-1.8,4.9c-1.8,0.9-4,0.1-4.9-1.8c-0.9-1.8-0.1-4,1.8-4.9
			C70.1,359.1,72.3,359.9,73.2,361.7z"/>
	</g>
	<path class="st4" d="M83.6,353.7c3.1,6.6,3,20.2,3,20.2c0.3,2,1.3,2.7,3.1,2.5c1-0.1,3.7-1.5,4.5,0.2
		C94.3,376.6,86.2,359.1,83.6,353.7z"/>
	<path class="st8" d="M101.3,390.4c-3.1,1.4-6.4,2.2-10.7,2.6c-1,0.1-2-0.7-2.1-1.7c-0.1-1,0.7-2,1.7-2.1c7.7-0.8,11.9-2.7,17.8-8.4
		c0.7-0.7,1.9-0.7,2.7,0.1c0.7,0.8,0.7,1.9-0.1,2.7C107.3,386.7,104.4,388.9,101.3,390.4z"/>
</g>
<g>
	<g>
		<path class="st9" d="M404.5,378.2c0,0-2.6,2.8-8.7,0.8c-6-1.9-22.6-7.2-22.6-7.2s-13.1-5.7-17,0.8c-0.1,0.2-0.3,0.5-0.4,0.7
			c-0.1,0.1-0.2,0.3-0.3,0.4l-5.6,9.3c8.4,18.1,22.1,33.9,40.5,44.8l30.7-51.7l-11.5-6.8L404.5,378.2z"/>
		<path class="st10" d="M454.8,432.7c0.1-0.2,0.2-0.3,0.2-0.5c0.1-0.2,0.3-0.4,0.4-0.6c3.8-6.4-7.4-15.3-7.4-15.3l0,0l0,0
			c0,0-12.6-12.1-17.2-16.4c-4.6-4.4-3.4-8-3.4-8l5.2-8.8l-11.5-6.8l-30.7,51.7l0,0c18.4,10.9,38.9,15.4,58.7,14.1L454.8,432.7z"/>
		<path class="st11" d="M430.8,399.9c-4.6-4.4-3.4-8-3.4-8l5.2-8.8l-11.5-6.8L405,403.5l0,0c11.2,6.7,23.8,8.6,32.7,5.2l1.7-0.7
			C436.1,404.9,432.8,401.7,430.8,399.9z"/>
		<path class="st12" d="M395.8,379.1c6.1,1.9,8.7-0.8,8.7-0.8l5.2-8.8l11.5,6.8L405,403.5l0,0c-11.2-6.7-19-16.7-20.2-26.3l-0.2-1.8
			C388.9,376.9,393.3,378.3,395.8,379.1z"/>
		<path class="st13" d="M404.5,378.2c0,0-2.6,2.8-8.7,0.8c-1.7-0.5-4.3-1.4-7.2-2.3c1,8,7.8,17.2,18.3,23.4l0,0l14.2-24l-11.5-6.8
			L404.5,378.2z"/>
		<path class="st14" d="M427.4,391.9l5.2-8.8l-11.5-6.8l-14.2,24c10.5,6.2,21.8,7.8,29.3,4.9c-2.2-2.1-4.1-4-5.4-5.2
			C426.3,395.5,427.4,391.9,427.4,391.9z"/>
		<path class="st15" d="M432.7,383.1l-22.9-13.6l-3.7,6.2c3.5,4.6,7.8,8.5,7.8,8.5s5.9,5,13.4,8.9c0,0,0.1-1,0.1-1.1
			C428.7,389.7,432.7,383.1,432.7,383.1z"/>
	</g>
	<path class="st7" d="M504,345.9c2.6-4.4,1.6-10-2.2-13.3c2.3-0.8,4.3-2.4,5.6-4.6c3-5.1,1.3-11.6-3.7-14.6
		c-0.2-0.1-0.4-0.2-0.6-0.3c0.2-0.3,0.4-0.5,0.6-0.8c2.6-4.4,1.2-10.2-3.3-12.8c-2.2-1.3-4.8-1.6-7.2-1c0.8-4.5-1.3-9.3-5.5-11.8
		c-5-3-11.4-1.7-14.9,2.8c0,0,0,0,0,0l-0.2,0.4c-0.2,0.3-0.4,0.5-0.5,0.8l0,0l-9,15.2l0,0L451.7,325l13.2,36.6c0,0,6.3-2.9,13.6-7.5
		c0.6,1.4,1.6,2.6,2.9,3.4c3.4,2,7.9,0.9,10-2.5c0.8-1.3,1.1-2.8,1-4.2C496.8,351.8,501.6,350,504,345.9z"/>
	<path class="st6" d="M472,290.7C472,290.7,472,290.7,472,290.7C472,290.7,472,290.7,472,290.7l0.1-0.1l0,0c0.2-0.3,0.3-0.6,0.4-0.8
		l0.2-0.4c0,0,0,0,0,0c2.2-5.2,0.3-11.4-4.7-14.4c-4.2-2.5-9.3-2-13,0.8c-0.6-2.4-2.1-4.5-4.3-5.8c-4.4-2.6-10.2-1.2-12.8,3.3
		c-0.2,0.3-0.3,0.6-0.5,0.9c-0.2-0.1-0.3-0.2-0.5-0.3c-5.1-3-11.6-1.3-14.6,3.7c-1.3,2.2-1.7,4.7-1.4,7.1c-4.7-1.8-10.1,0-12.7,4.5
		c-2.4,4.1-1.8,9.1,1.3,12.5c-1.3,0.6-2.4,1.6-3.2,2.9c-2,3.4-0.9,7.9,2.5,10c1.4,0.8,2.9,1.1,4.4,1c-0.6,8.7-0.1,15.6-0.1,15.6
		l38.4-5.9l10.6-17.8l0,0L472,290.7z"/>
	<path class="st14" d="M462.1,307.3l-43.5,73.2c0,0,27.7,17.7,33.7,7.7c5.9-10,32.5-65.2,32.5-65.2L462.1,307.3z"/>
	<path class="st13" d="M462.1,307.3l-43.5,73.2c0,0-28.8-15.9-22.8-25.9c5.9-10,41.7-59.7,41.7-59.7L462.1,307.3z"/>
	<path class="st6" d="M458.3,313.7C458.3,313.7,458.3,313.7,458.3,313.7l5.2-8.6L436,288.7l-10.9,18.4
		C436.4,305.6,448,307.6,458.3,313.7z"/>
	<path class="st7" d="M478.9,337l10-16.9l-25.4-15.1l-5.1,8.7C467.7,319.3,474.6,327.5,478.9,337z"/>
	<g>
		<path class="st6" d="M453.4,345.8c-1,1.6-0.4,3.7,1.2,4.7c1.6,1,3.7,0.4,4.7-1.2c1-1.6,0.4-3.7-1.2-4.7
			C456.5,343.7,454.4,344.2,453.4,345.8z"/>
		<path class="st6" d="M432.9,333.6c-1,1.6-3,2.1-4.7,1.2c-1.6-1-2.1-3-1.2-4.7c1-1.6,3-2.1,4.7-1.2
			C433.3,329.9,433.8,332,432.9,333.6z"/>
	</g>
	<path class="st14" d="M444.3,337.4c-3.4,5.7-13.8,12.8-13.8,12.8c-1.4,1.3-1.4,2.4-0.3,3.7c0.6,0.7,3.1,2,2.2,3.6
		C432.4,357.4,441.5,342.1,444.3,337.4z"/>
	<path class="st16" d="M419.2,359.1c-0.7,4.5,1.3,9.2,5.5,11.7c4.2,2.5,9.2,2,12.9-0.8L419.2,359.1z"/>
</g>
<g>
	<path class="st17" d="M348.5,343.5l-16.9-7.2l-6,14c0,0-3.2,4.6-11.9,3.3c-8.5-1.3-32.4-5.1-32.4-5.1s-19-5.1-23.4,5.1
		c-0.2,0.4-0.3,0.7-0.4,1.1c-0.1,0.2-0.2,0.5-0.3,0.7l-8,18.8c5.6,7.9,12,15.3,19.1,22.1l0.3-0.6c0,0.3-0.1,0.5-0.1,0.8
		c12.7,12.1,27.8,22.1,44.9,29.4l0,0L348.5,343.5z"/>
	<path class="st18" d="M366.1,437.2l-0.3,0.6c9.8,0.5,19.6,0,29.1-1.4l8-18.8c0.1-0.2,0.2-0.5,0.3-0.7c0.2-0.3,0.3-0.7,0.5-1
		c4.4-10.2-12.5-20.4-12.5-20.4l0,0c0,0-19.2-14.6-26.1-19.8c-7-5.3-5.9-10.8-5.9-10.8l6-14l-16.9-7.2l-35.1,82.3l0,0
		c17.1,7.3,34.7,11.2,52.3,12.1C365.8,437.6,365.9,437.4,366.1,437.2z"/>
	<polygon class="st19" points="335.4,383.8 333.5,378.5 331.9,382.3 	"/>
	<polygon class="st20" points="328.4,380.8 333.5,378.5 331.9,382.3 	"/>
	<g>
		<path class="st21" d="M323.5,351.3c0,0-3.6,3.7-12.9,2.1c-2.6-0.5-6.7-1.2-11.1-2c3.1,11.6,15.3,24.7,31.9,31.8l0,0l16.3-38.1
			l-18.3-7.8L323.5,351.3z"/>
		<path class="st22" d="M360,366.9l6-14l-18.3-7.8l-16.3,38.1c16.7,7.1,34.5,6.7,45.1,0.9c-3.6-2.6-6.9-5-9.1-6.6
			C359.9,372,360,366.9,360,366.9z"/>
		<path class="st23" d="M366,352.9l-36.5-15.6l-4.2,9.9c6.1,6.1,13.2,11,13.2,11s9.6,6.2,21.5,10.4c0,0-0.1-1.4,0-1.6
			C361.5,363.4,366,352.9,366,352.9z"/>
		<polygon class="st24" points="318.1,274.7 356.6,184.5 363.2,198.5 376.8,193.9 383.2,207.7 397.2,202.9 403.1,215.4 398.7,225.7 
			368.6,296.3 		"/>
		<polygon class="st25" points="419.1,317.9 457.6,227.6 443,232.6 436.9,219.6 422.5,224.4 416.2,211 403.1,215.4 398.7,225.7 
			369.1,295 		"/>
		<path class="st22" d="M395,234.4L345.3,351c0,0,44.4,20.6,51.2,4.7c6.8-15.9,35.1-102.6,35.1-102.6L395,234.4z"/>
		<path class="st21" d="M395,234.4L345.3,351c0,0-45.6-17.8-38.8-33.7c6.8-15.9,49.8-96.3,49.8-96.3L395,234.4z"/>
		<path class="st24" d="M390,246.1C390,246.1,390,246.1,390,246.1l6.5-15.1l-40-17.1l-13.7,32C358.5,240.1,375,239.7,390,246.1z"/>
		<path class="st25" d="M423.9,277.4l12.5-29.4l-40-17.1l-6.4,15.1C404.8,252.4,416.3,263.5,423.9,277.4z"/>
		<g>
			<path class="st26" d="M389.7,292.8c-1.1,2.6,0.1,5.5,2.7,6.6c2.6,1.1,5.5-0.1,6.6-2.7c1.1-2.6-0.1-5.5-2.7-6.6
				S390.8,290.2,389.7,292.8z"/>
			<path class="st26" d="M356.9,278.8c-1.1,2.6-4.1,3.8-6.6,2.7s-3.8-4.1-2.7-6.6c1.1-2.6,4.1-3.8,6.6-2.7
				C356.8,273.2,358,276.2,356.9,278.8z"/>
		</g>
		<path class="st22" d="M374.6,282.1c-3.9,9.1-17.8,21.6-17.8,21.6c-1.8,2.1-1.6,3.8,0.3,5.5c1.1,0.9,4.9,2.4,3.9,4.8
			C361,314,371.4,289.6,374.6,282.1z"/>
		<path class="st16" d="M341.6,319c-0.2,6.8,3.8,13.3,10.4,16.1c6.6,2.8,14,1.1,18.8-3.7L341.6,319z"/>
	</g>
	<path class="st27" d="M305.5,422.1c2.6,1.3,5.2,2.5,7.8,3.6l13.4-31.4l-3-2.7L305.5,422.1z"/>
	<path class="st28" d="M313.3,425.7c2.7,1.1,5.3,2.2,8,3.1l9.4-34.2l-4-0.3L313.3,425.7z"/>
	<path class="st18" d="M312.5,351.4c0,0-0.7,5.6,8.1,17.6c8.7,11.8,12.9,9.5,12.9,9.5l-14.2,11.4c0,0-12.2-14-16.8-24.4
		c-4.6-10.3-4.8-14.5-4.8-14.5S307.2,351,312.5,351.4z"/>
	<path class="st17" d="M367.6,374.9c0,0-3.6,4.4-18.3,6.3c-14.5,1.9-15.8-2.8-15.8-2.8l1.6,18.1c0,0,18.6-0.9,29.2-4.7
		c10.6-3.8,13.8-6.5,13.8-6.5S371.5,378.4,367.6,374.9z"/>
	<path class="st28" d="M333.5,378.5l-14.2,11.4c0,0,0.5,3.9,6.6,6.5c6.1,2.6,9.3,0.3,9.3,0.3L333.5,378.5z"/>
	<path class="st29" d="M325.9,396.4c6.1,2.6,9.3,0.3,9.3,0.3l-1.6-18.1L325.9,396.4L325.9,396.4z"/>
</g>
<g>
	<path class="st4" d="M125.9,383.1c0,0-12.6,8.8-8.1,18.7l12.2,26.7c7.2,0,14.4-0.6,21.6-1.7l-15.3-33.5
		C132.4,384.8,125.9,383.1,125.9,383.1z"/>
	<path class="st30" d="M155.3,336.2l-12.9,5.9l6.2,13.6c0,0,1.4,5.3-3.7,10c-5,4.6-19.1,17.4-19.1,17.4l0,0l0,0
		c0,0-12.6,8.8-8.1,18.7l12.2,26.7c4.1,0,8.3-0.2,12.4-0.6l8-3.7l-3.4-7.5c0.3,0.1,0.6,0.1,0.9,0.2c3,0.6,6.4,4,9.9,8.8
		c11.3-2.2,22.6-5.8,33.6-10.8l0,0L155.3,336.2z"/>
	<path class="st3" d="M210.1,344.5c0,0-3,6,0.9,14.6l15.3,33.5c5.5-4.7,10.7-9.8,15.4-15.2l-12.2-26.7
		C225,340.7,210.1,344.5,210.1,344.5z"/>
	<path class="st31" d="M210.1,344.5L210.1,344.5c0,0-18.9,2.3-25.7,3.1c-6.9,0.8-9.9-3.7-9.9-3.7l-6.2-13.6l-12.9,5.9l36.1,78.7
		c11-5,21-11.2,30.1-18.4c-1.3-5.8-1.6-10.5-0.2-13.2c0.2-0.3,0.3-0.6,0.4-0.8l3.4,7.5l8-3.7c3-2.9,5.9-5.9,8.6-9l-12.2-26.7
		C225,340.7,210.1,344.5,210.1,344.5z"/>
	<path class="st3" d="M148.7,355.7c0,0,1.4,5.3-3.7,10c-1.5,1.3-3.7,3.3-6.1,5.5c8.7,6.3,21.6,7.4,33.4,2l0,0l-17-37.1l-12.9,5.9
		L148.7,355.7z"/>
	<path class="st4" d="M174.5,343.9l-6.2-13.6l-12.9,5.9l17,37.1c11.8-5.4,19.3-15.9,20.3-26.6c-3.2,0.4-6.2,0.8-8.2,1
		C177.6,348.4,174.5,343.9,174.5,343.9z"/>
	<path class="st5" d="M168.2,330.3l-25.8,11.8l4.4,9.6c6.5,0.5,12.7-0.5,12.7-0.5s8.2-1.7,16-6.1c0,0-1-0.9-1.1-1.1
		C172.9,340.5,168.2,330.3,168.2,330.3z"/>
	<path class="st1" d="M193.7,226.9c18.5,40.4,0.8,88.1-39.6,106.5c-40.4,18.5-88.1,0.8-106.5-39.6c-18.5-40.4-0.8-88.1,39.6-106.5
		C127.5,168.8,175.2,186.5,193.7,226.9z"/>
	<path class="st2" d="M193.7,226.9c-18.5-40.4-66.2-58.1-106.5-39.6l67,146.1C194.4,314.9,212.1,267.2,193.7,226.9z"/>
	<path class="st4" d="M105.5,227.4l51.9,113.3c0,0,44.3-18.6,37.2-34.1c-7.1-15.5-51.4-93.3-51.4-93.3L105.5,227.4z"/>
	<path class="st3" d="M105.5,227.4l51.9,113.3c0,0-43.1,21.4-50.1,5.9c-7.1-15.5-37.1-99.9-37.1-99.9L105.5,227.4z"/>
	<path class="st1" d="M70.1,246.7l2.1,6c0,0,46.2-3.3,65.6-6.2c19.4-2.9,21.8-4.1,21.8-4.1l-16.5-29.2
		C143.2,213.2,98.4,213.1,70.1,246.7z"/>
	<g>
		<path class="st7" d="M144.6,269.9c1.1,2.5,4.1,3.6,6.6,2.5c2.5-1.1,3.6-4.1,2.5-6.6c-1.1-2.5-4.1-3.6-6.6-2.5
			C144.6,264.4,143.5,267.4,144.6,269.9z"/>
		<path class="st7" d="M112.8,284.4c1.1,2.5,0,5.5-2.5,6.6c-2.5,1.1-5.5,0-6.6-2.5c-1.1-2.5,0-5.5,2.5-6.6
			C108.7,280.8,111.6,281.9,112.8,284.4z"/>
	</g>
	<path class="st4" d="M126.8,273.8c4.1,8.9,3.9,27.2,3.9,27.2c0.4,2.7,1.7,3.7,4.2,3.4c1.4-0.2,5-2,6.1,0.4
		C140.9,304.8,130.1,281.1,126.8,273.8z"/>
	<path class="st2" d="M132,322.1c4.8,4.6,12.1,6.1,18.6,3.1c6.4-2.9,10.1-9.4,9.8-16.1L132,322.1z"/>
</g>
<g>
	<path class="st9" d="M248.7,353.7h-30.5V379c0,0-1.9,9.1-16,12.7c-13.9,3.5-52.8,13.3-52.8,13.3s-32.4,4.6-32.4,23.1
		c0,0.7,0,1.3,0.1,1.9c0,0.4-0.1,0.9-0.1,1.3v34c13.7,8.4,28.3,15.5,43.6,21.2v-1.1c0.1,0.4,0.2,0.8,0.4,1.2
		c27.3,10.1,56.9,15.7,87.7,15.7l0,0V353.7z"/>
	<path class="st10" d="M336.8,485.4v1.1c15.3-5.7,29.9-12.8,43.6-21.2v-34c0-0.4,0-0.9-0.1-1.3c0-0.6,0.1-1.2,0.1-1.9
		c0-18.5-32.4-23.1-32.4-23.1l0,0c0,0-38.9-9.8-52.8-13.3c-14.1-3.6-16-12.7-16-12.7v-25.3h-30.5v148.6c30.9,0,60.4-5.5,87.7-15.7
		C336.6,486.2,336.7,485.8,336.8,485.4z"/>
	<path class="st3" d="M218.2,379c0,0-1.9,9.1-16,12.7c-4,1-10.1,2.6-16.8,4.2c11.4,15.8,35.4,26.6,63.3,26.6l0,0v-68.9h-30.5V379z"
		/>
	<path class="st4" d="M279.1,379v-25.3h-30.5v68.9c27.8,0,51.9-10.9,63.3-26.6c-6.6-1.7-12.8-3.2-16.8-4.2
		C281.1,388.1,279.1,379,279.1,379z"/>
	<polygon class="st10" points="255,423.8 248.7,416.9 248.7,423.8 	"/>
	<polygon class="st9" points="242.3,423.8 248.7,416.9 248.7,423.8 	"/>
	<path class="st12" d="M199,389.3c0,0,2.6,9.1,23.8,21.6c21,12.4,25.9,6.1,25.9,6.1l-14.3,26.6c0,0-27.8-13.5-41.5-26.3
		c-13.7-12.8-16.8-19-16.8-19S190.6,392,199,389.3z"/>
	<path class="st11" d="M298.4,389.3c0,0-2.6,9.1-23.8,21.6c-21,12.4-25.9,6.1-25.9,6.1l14.3,26.6c0,0,27.8-13.5,41.5-26.3
		c13.7-12.8,16.8-19,16.8-19S306.8,392,298.4,389.3z"/>
	<path class="st5" d="M279.1,379v-25.3h-60.9v17.9c12.9,5.3,26.7,8.1,26.7,8.1s16,3.1,35.4,2.2C279.4,380.2,279.1,379,279.1,379z"/>
	<path class="st6" d="M173.7,248.9c0,0-39.5-57.4-39.5-97.8c0-40.5,21.6-65.9,60.2-65.9c38.6,0,53.6,0,53.6,0v102.5L173.7,248.9z"/>
	<path class="st7" d="M248.1,85.2H313c7,0,34-2.8,34-21c0-13.4-4-28.1-4-28.1S376,59.8,376,115.3c0,95-67.3,125.8-67.3,125.8
		l-60.7-53.4V85.2z"/>
	<path class="st4" d="M248.7,154v210.6c0,0,81.2,2.6,81.2-26.2c0-28.8-13.3-179.7-13.3-179.7L248.7,154z"/>
	<path class="st3" d="M248.7,154v210.6c0,0-81.2,2.6-81.2-26.2c0-28.8,13.3-179.7,13.3-179.7L248.7,154z"/>
	<g>
		<path class="st7" d="M278.9,246.4c0,4.6,3.8,8.4,8.4,8.4c4.6,0,8.4-3.8,8.4-8.4c0-4.6-3.8-8.4-8.4-8.4
			C282.7,237.9,278.9,241.7,278.9,246.4z"/>
		<path class="st7" d="M219.7,246.4c0,4.6-3.8,8.4-8.4,8.4s-8.4-3.8-8.4-8.4c0-4.6,3.8-8.4,8.4-8.4S219.7,241.7,219.7,246.4z"/>
	</g>
	<path class="st6" d="M248.1,175.1c0,0,0.1,0,0.1,0v-27.3h-86.6v57.8C185.9,186.5,215.8,175.1,248.1,175.1z"/>
	<path class="st7" d="M328.2,200.9v-53.1h-79.9v27.3C277.7,175.2,305.1,184.7,328.2,200.9z"/>
	<path class="st4" d="M248.7,239.9c0,16.5-13.2,44.6-13.2,44.6c-1.3,4.4,0.1,6.9,4.1,8.1c2.3,0.7,9.1,0.4,9.1,4.8
		C248.7,297.5,248.7,253.5,248.7,239.9z"/>
	<path class="st8" d="M248.6,332.6c-7.8,0-15.4-1.6-24.6-4.9c-2.2-0.8-3.4-3.2-2.6-5.5c0.8-2.2,3.3-3.4,5.5-2.6
		c16.7,5.9,27.2,5.8,44.9-0.2c2.2-0.8,4.7,0.4,5.5,2.7c0.8,2.2-0.4,4.7-2.7,5.5C264.6,330.9,256.6,332.6,248.6,332.6z"/>
</g>
<circle class="st32" cx="251.5" cy="247.2" r="243.2"/>
</svg>
